<svg width="24" height="32" viewBox="0 0 24 32" fill="none" xmlns="http://www.w3.org/2000/svg">
<g clip-path="url(#clip0_2_409)">
<path fill-rule="evenodd" clip-rule="evenodd" d="M21 16C21.0001 19.5929 18.8633 22.8416 15.5642 24.2644C12.2651 25.6872 8.43578 25.0116 5.82281 22.5456C5.52147 22.2609 5.50804 21.7857 5.79281 21.4844C6.07758 21.183 6.55272 21.1696 6.85406 21.4544C9.84647 24.2774 14.5545 24.1631 17.4063 21.1981C20.2581 18.233 20.1891 13.5241 17.2517 10.6439C14.3144 7.76358 9.60504 7.7871 6.69656 10.6966C6.36562 11.0312 6.05438 11.3603 5.75156 11.6875L7.28062 13.2194C7.49537 13.4339 7.55965 13.7567 7.44347 14.0371C7.32728 14.3175 7.05353 14.5002 6.75 14.5H3C2.58579 14.5 2.25 14.1642 2.25 13.75V10C2.24976 9.69647 2.4325 9.42272 2.71291 9.30653C2.99332 9.19035 3.31612 9.25463 3.53063 9.46938L4.6875 10.6281C4.98938 10.3009 5.30062 9.97187 5.63062 9.63906C8.20371 7.0616 12.0766 6.28894 15.4417 7.68168C18.8069 9.07443 21.001 12.358 21 16ZM12 10.75C11.5858 10.75 11.25 11.0858 11.25 11.5V16C11.2499 16.2634 11.388 16.5075 11.6138 16.6431L15.3638 18.8931C15.7189 19.1064 16.1798 18.9914 16.3931 18.6362C16.6064 18.2811 16.4914 17.8202 16.1362 17.6069L12.75 15.5753V11.5C12.75 11.0858 12.4142 10.75 12 10.75Z" fill="#0D141C"/>
</g>
<defs>
<clipPath id="clip0_2_409">
<rect width="24" height="24" fill="white" transform="translate(0 4)"/>
</clipPath>
</defs>
</svg>
