<svg width="24" height="32" viewBox="0 0 24 32" fill="none" xmlns="http://www.w3.org/2000/svg">
<g clip-path="url(#clip0_2_490)">
<path fill-rule="evenodd" clip-rule="evenodd" d="M7.5 10C7.5 9.58579 7.83579 9.25 8.25 9.25H20.25C20.6642 9.25 21 9.58579 21 10C21 10.4142 20.6642 10.75 20.25 10.75H8.25C7.83579 10.75 7.5 10.4142 7.5 10ZM20.25 15.25H8.25C7.83579 15.25 7.5 15.5858 7.5 16C7.5 16.4142 7.83579 16.75 8.25 16.75H20.25C20.6642 16.75 21 16.4142 21 16C21 15.5858 20.6642 15.25 20.25 15.25ZM20.25 21.25H8.25C7.83579 21.25 7.5 21.5858 7.5 22C7.5 22.4142 7.83579 22.75 8.25 22.75H20.25C20.6642 22.75 21 22.4142 21 22C21 21.5858 20.6642 21.25 20.25 21.25ZM4.125 8.875C3.50368 8.875 3 9.37868 3 10C3 10.6213 3.50368 11.125 4.125 11.125C4.74632 11.125 5.25 10.6213 5.25 10C5.25 9.37868 4.74632 8.875 4.125 8.875ZM4.125 14.875C3.50368 14.875 3 15.3787 3 16C3 16.6213 3.50368 17.125 4.125 17.125C4.74632 17.125 5.25 16.6213 5.25 16C5.25 15.3787 4.74632 14.875 4.125 14.875ZM4.125 20.875C3.50368 20.875 3 21.3787 3 22C3 22.6213 3.50368 23.125 4.125 23.125C4.74632 23.125 5.25 22.6213 5.25 22C5.25 21.3787 4.74632 20.875 4.125 20.875Z" fill="#4F7396"/>
</g>
<defs>
<clipPath id="clip0_2_490">
<rect width="24" height="24" fill="white" transform="translate(0 4)"/>
</clipPath>
</defs>
</svg>
