<svg width="24" height="32" viewBox="0 0 24 32" fill="none" xmlns="http://www.w3.org/2000/svg">
<g clip-path="url(#clip0_2_425)">
<path fill-rule="evenodd" clip-rule="evenodd" d="M15.4191 22.3403C15.5694 22.5708 15.5814 22.8652 15.4503 23.1072C15.3192 23.3492 15.0662 23.5 14.7909 23.5H0.959063C0.683844 23.5 0.430752 23.3492 0.299676 23.1072C0.1686 22.8652 0.180599 22.5708 0.330938 22.3403C1.38666 20.7153 2.93952 19.4752 4.75781 18.805C2.69393 17.431 1.7731 14.8677 2.49084 12.4944C3.20857 10.1211 5.39558 8.49772 7.875 8.49772C10.3544 8.49772 12.5414 10.1211 13.2592 12.4944C13.9769 14.8677 13.0561 17.431 10.9922 18.805C12.8105 19.4752 14.3633 20.7153 15.4191 22.3403ZM23.6606 22.3263C22.6046 20.7081 21.0552 19.4733 19.2422 18.805C21.7052 17.1459 22.4542 13.858 20.9528 11.2958C19.4514 8.73367 16.2169 7.78002 13.5656 9.11781C13.4667 9.16887 13.3956 9.26121 13.3716 9.36986C13.3475 9.47851 13.3729 9.59225 13.4409 9.68031C15.3907 12.1124 15.5286 15.5309 13.7812 18.1122C13.6667 18.2832 13.7115 18.5146 13.8816 18.6306C14.9915 19.4053 15.9416 20.3866 16.68 21.5209C16.9778 21.977 17.0994 22.5258 17.0222 23.065C17.0046 23.1735 17.0355 23.2843 17.1068 23.3681C17.1781 23.4518 17.2825 23.5 17.3925 23.5H23.0456C23.3852 23.5001 23.6825 23.2721 23.7703 22.9441C23.823 22.7319 23.7832 22.5073 23.6606 22.3263Z" fill="#5A7B9D"/>
</g>
<defs>
<clipPath id="clip0_2_425">
<rect width="24" height="24" fill="white" transform="translate(0 4)"/>
</clipPath>
</defs>
</svg>
